<?xml version="1.0" standalone="no"?>
<!DOCTYPE svg PUBLIC "-//W3C//DTD SVG 20010904//EN"
 "http://www.w3.org/TR/2001/REC-SVG-20010904/DTD/svg10.dtd">
<svg version="1.0" xmlns="http://www.w3.org/2000/svg"
 width="512.000000pt" height="512.000000pt" viewBox="0 0 512.000000 512.000000"
 preserveAspectRatio="xMidYMid meet">
<metadata>
Created by potrace 1.16, written by Peter Selinger 2001-2019
</metadata>
<g transform="translate(0.000000,512.000000) scale(0.100000,-0.100000)"
fill="#000000" stroke="none">
<path d="M510 4650 c-20 -20 -20 -29 -18 -1973 l3 -1952 27 -57 c37 -79 98
-142 177 -181 l66 -32 1615 0 1615 0 66 32 c79 39 140 102 177 181 24 52 27
70 30 195 3 120 1 141 -14 158 -16 18 -34 19 -301 19 l-283 0 0 1789 0 1788
-21 27 -20 26 -1550 0 c-1538 0 -1549 0 -1569 -20z m3010 -1870 l0 -1740
-1193 0 -1194 0 -19 -21 c-16 -17 -20 -42 -24 -143 -5 -114 -7 -126 -35 -171
-76 -124 -251 -140 -352 -34 -68 72 -63 -87 -63 1979 l0 1870 1440 0 1440 0 0
-1740z m600 -1947 c-1 -97 -50 -175 -135 -214 -38 -18 -103 -19 -1427 -19
l-1386 0 31 57 c26 49 32 71 35 145 l4 88 1439 0 1439 0 0 -57z"/>
<path d="M874 4352 c-31 -20 -34 -55 -34 -362 l0 -311 25 -24 c24 -25 25 -25
225 -25 200 0 201 0 225 25 32 31 33 74 2 103 -22 21 -33 22 -175 22 l-152 0
0 70 0 70 150 0 c147 0 152 1 175 25 31 30 33 77 5 105 -18 18 -33 20 -175 20
l-155 0 0 69 0 70 156 3 c150 3 157 4 175 27 25 30 24 76 -1 101 -19 19 -33
20 -227 20 -115 0 -213 -4 -219 -8z"/>
<path d="M1448 4343 c-16 -17 -22 -41 -19 -74 0 -8 43 -73 95 -143 l94 -128
-92 -127 c-51 -69 -96 -134 -99 -144 -11 -30 17 -83 48 -91 47 -12 77 11 155
119 41 58 78 105 81 105 4 0 43 -49 87 -110 85 -115 110 -133 158 -111 30 13
49 52 40 84 -3 13 -43 76 -89 138 -46 63 -87 120 -91 127 -4 7 29 61 88 143
103 140 114 171 76 209 -25 25 -83 27 -107 2 -10 -9 -49 -61 -88 -115 l-70
-99 -22 29 c-13 15 -51 66 -86 113 -59 80 -65 85 -103 88 -29 2 -45 -2 -56
-15z"/>
<path d="M2104 4339 c-18 -20 -19 -43 -22 -328 -2 -193 1 -318 7 -334 18 -47
88 -59 125 -21 13 12 16 40 16 140 l0 124 99 0 99 0 4 -126 c3 -118 4 -127 27
-145 30 -25 62 -24 95 2 l26 20 0 325 c0 311 -1 325 -20 344 -19 19 -33 20
-228 20 -200 0 -210 -1 -228 -21z m326 -199 l0 -70 -100 0 -100 0 0 70 0 70
100 0 100 0 0 -70z"/>
<path d="M2687 4342 c-15 -17 -17 -55 -17 -345 l0 -326 27 -21 c20 -16 36 -20
58 -16 58 12 60 19 65 233 l5 196 59 -71 c90 -111 124 -110 215 4 l61 77 0
-197 c0 -196 0 -197 25 -221 30 -30 64 -32 99 -4 l26 20 0 325 c0 311 -1 325
-20 344 -20 20 -74 27 -96 12 -5 -4 -52 -59 -103 -122 -52 -63 -97 -116 -100
-118 -4 -1 -39 37 -77 85 -119 151 -131 163 -174 163 -23 0 -43 -7 -53 -18z"/>
<path d="M1283 3118 l-113 -113 -58 58 c-46 46 -64 57 -90 57 -42 0 -72 -30
-72 -73 0 -28 13 -45 93 -123 50 -50 100 -94 110 -98 10 -3 32 0 50 8 45 19
294 274 302 309 11 43 -21 81 -71 85 -38 3 -43 -1 -151 -110z"/>
<path d="M1591 3074 c-12 -15 -21 -33 -21 -40 0 -26 23 -62 47 -73 17 -8 248
-11 784 -11 839 0 810 -2 824 61 5 23 2 38 -13 58 l-19 26 -791 3 -790 2 -21
-26z"/>
<path d="M947 2552 c-15 -16 -17 -47 -17 -219 0 -190 1 -201 21 -219 19 -17
41 -19 201 -22 196 -4 233 3 249 45 5 13 9 103 9 199 0 170 -6 207 -34 226 -6
4 -101 8 -212 8 -182 0 -202 -2 -217 -18z m313 -217 l0 -95 -90 0 -90 0 0 95
0 95 90 0 90 0 0 -95z"/>
<path d="M1599 2391 c-17 -13 -23 -29 -23 -56 0 -27 6 -43 23 -56 22 -18 56
-19 803 -19 l779 0 24 25 c14 13 25 36 25 50 0 14 -11 37 -25 50 l-24 25 -779
0 c-747 0 -781 -1 -803 -19z"/>
<path d="M950 1860 c-19 -19 -20 -33 -20 -220 0 -187 1 -201 20 -220 19 -19
33 -20 215 -20 263 0 245 -17 245 240 0 257 18 240 -245 240 -182 0 -196 -1
-215 -20z m310 -220 l0 -90 -90 0 -90 0 0 90 0 90 90 0 90 0 0 -90z"/>
<path d="M1596 1694 c-27 -27 -31 -63 -9 -92 l20 -27 779 -3 c428 -1 789 0
800 3 26 6 48 55 39 84 -17 54 26 51 -825 51 -703 0 -790 -2 -804 -16z"/>
<path d="M4096 4655 c-59 -21 -108 -66 -141 -130 l-30 -59 0 -1280 0 -1281
148 -317 c134 -286 152 -318 178 -327 32 -11 67 -2 86 20 6 8 74 151 152 319
l141 305 0 1280 0 1280 -24 50 c-29 60 -76 107 -136 134 -39 18 -65 21 -190
20 -97 0 -158 -4 -184 -14z m324 -150 c49 -25 60 -60 60 -185 l0 -110 -205 0
-205 0 0 93 c0 114 12 158 51 191 29 25 36 26 150 26 88 0 128 -4 149 -15z
m-220 -1470 l0 -1025 -65 0 -65 0 0 1025 0 1025 65 0 65 0 0 -1025z m280 0 l0
-1025 -65 0 -65 0 0 1025 0 1025 65 0 65 0 0 -1025z m-64 -1227 c-75 -168
-132 -287 -137 -288 -4 0 -135 273 -156 328 -4 9 31 12 156 12 l161 0 -24 -52z"/>
</g>
</svg>
